<svg
        xmlns="http://www.w3.org/2000/svg"
        xmlns:xlink="http://www.w3.org/1999/xlink"
        width="12px" height="9px">
    <path fill-rule="evenodd"  fill="#9966cc"
          d="M11.708,1.372 L10.720,0.385 C10.585,0.249 10.420,0.182 10.226,0.182 C10.032,0.182 9.868,0.249 9.732,0.385 L4.966,5.155 L2.830,3.013 C2.694,2.878 2.529,2.810 2.336,2.810 C2.142,2.810 1.977,2.878 1.842,3.013 L0.854,4.000 C0.718,4.136 0.650,4.301 0.650,4.494 C0.650,4.687 0.718,4.852 0.854,4.988 L3.484,7.616 L4.472,8.603 C4.607,8.738 4.772,8.806 4.966,8.806 C5.160,8.806 5.324,8.738 5.460,8.603 L6.448,7.616 L11.708,2.360 C11.844,2.224 11.912,2.060 11.912,1.866 C11.912,1.672 11.844,1.508 11.708,1.372 L11.708,1.372 Z"/>
</svg>
